<svg width="52" height="64" viewBox="0 0 52 64" fill="none" xmlns="http://www.w3.org/2000/svg">
<g clip-path="url(#clip0_113_82)">
<path d="M16.1964 53.4102C13.0564 50.5778 12.1399 44.6265 13.4481 40.3149C15.7163 43.0333 18.8592 43.8944 22.1146 44.3805C27.1403 45.1306 32.0759 44.85 36.7445 42.5832C37.2787 42.3237 37.7722 41.9786 38.3558 41.6291C38.7938 42.8833 38.9078 44.1494 38.7549 45.4381C38.3828 48.5765 36.8001 51.0008 34.2827 52.8386C33.2761 53.5736 32.211 54.2307 31.1714 54.9239C27.9774 57.0541 27.1133 59.552 28.3135 63.1855C28.342 63.2739 28.3675 63.3625 28.432 63.5785C26.8013 62.8584 25.6101 61.8098 24.7025 60.431C23.7439 58.9759 23.2878 57.3662 23.2638 55.6245C23.2518 54.7768 23.2518 53.9217 23.1363 53.0861C22.8543 51.0489 21.8851 50.1368 20.0594 50.0842C18.1857 50.0302 16.7035 51.1734 16.3104 52.9736C16.2804 53.1116 16.2369 53.2481 16.1934 53.4086L16.1964 53.4102Z" fill="#0A3D38"/>
<path d="M0.405029 41.635C0.405029 41.635 8.99067 37.4629 17.6003 37.4629L24.0917 17.4233C24.3346 16.4542 25.0443 15.7956 25.8454 15.7956C26.6465 15.7956 27.3561 16.4542 27.5991 17.4233L34.0904 37.4629C44.2873 37.4629 51.2857 41.635 51.2857 41.635C51.2857 41.635 36.7023 2.00576 36.6737 1.92625C36.2552 0.754599 35.5486 0 34.596 0H17.0962C16.1436 0 15.4655 0.754599 15.0184 1.92625C14.9869 2.00426 0.405029 41.635 0.405029 41.635Z" fill="#0A3D38"/>
</g>
<defs>
<clipPath id="clip0_113_82">
<rect width="51.8481" height="64" fill="white"/>
</clipPath>
</defs>
</svg>
