<svg width="59" height="64" viewBox="0 0 59 64" fill="none" xmlns="http://www.w3.org/2000/svg">
<g clip-path="url(#clip0_113_71)">
<path d="M26.5021 0.812399C28.0858 -0.0919982 30.1486 -0.0960833 31.731 0.812399C39.6916 5.30012 47.6547 9.7808 55.6139 14.2712C57.111 15.1125 58.1123 16.7747 58.0971 18.4957V45.4955C58.1082 47.2878 57.0079 48.9897 55.4285 49.8119C47.4941 54.2749 39.5637 58.7433 31.6306 63.2063C30.0142 64.1284 27.91 64.0573 26.344 63.0597C23.9653 61.6839 21.5825 60.3149 19.2035 58.9405C18.7174 58.6514 18.1694 58.4213 17.8261 57.951C18.1296 57.543 18.6721 57.4921 19.113 57.314C20.1059 56.999 21.0179 56.4933 21.9301 56.0026C22.1607 55.8451 22.4423 55.9055 22.6634 56.0464C24.6976 57.21 26.7137 58.4074 28.7546 59.5599C29.19 59.8106 29.6309 59.4777 30.003 59.2707C37.7892 54.8804 45.5849 50.5066 53.3696 46.1149C53.6581 45.9764 53.8175 45.671 53.7941 45.3557C53.7995 36.4491 53.7955 27.5408 53.7968 18.6341C53.8298 18.2765 53.6223 17.9476 53.2982 17.8012C45.3913 13.3587 37.4884 8.90931 29.5829 4.46562C29.4459 4.37167 29.2837 4.32127 29.1174 4.32102C28.9512 4.32078 28.7888 4.37071 28.6516 4.46426C20.746 8.90931 12.8446 13.3628 4.93902 17.8051C4.616 17.9517 4.39921 18.2751 4.43765 18.6341C4.43902 27.5408 4.43765 36.4491 4.43765 45.3571C4.42394 45.5109 4.45781 45.6652 4.53467 45.7992C4.61154 45.9333 4.72773 46.0406 4.86759 46.1067C6.97722 47.3002 9.08959 48.4854 11.2006 49.6748C12.3898 50.3135 13.85 50.6929 15.1603 50.2036C16.3166 49.7899 17.1271 48.6127 17.105 47.3878C17.1159 38.5331 17.0996 29.6771 17.1132 20.8237C17.0843 20.4307 17.4581 20.1059 17.8411 20.1429C18.8548 20.1361 19.8698 20.1293 20.8834 20.1456C21.3065 20.1361 21.5977 20.5594 21.5454 20.9554C21.5413 29.8661 21.5563 38.7771 21.5386 47.6879C21.5413 50.0627 20.5634 52.6467 18.3616 53.8087C15.6492 55.2106 12.2966 54.9133 9.61688 53.5691C7.29706 52.4139 5.08324 51.0506 2.80459 49.813C1.22111 48.9953 0.126256 47.2866 0.137403 45.4958V18.4957C0.120797 16.7391 1.16197 15.0467 2.70563 14.2177C10.6387 9.75107 18.5704 5.28105 26.5021 0.812399Z" fill="#0A3D38"/>
<path d="M33.423 19.5155C36.8829 19.2933 40.587 19.3839 43.7004 21.0844C46.111 22.3876 47.4475 25.1225 47.49 27.7944C47.4227 28.1548 47.0451 28.3536 46.7002 28.3289C45.6963 28.3275 44.6922 28.3425 43.6884 28.3221C43.2625 28.3384 43.0151 27.9467 42.9616 27.5711C42.6732 26.2927 41.9743 25.0265 40.7682 24.4099C38.9168 23.4851 36.7701 23.5316 34.7512 23.5509C33.2774 23.629 31.6925 23.7563 30.4439 24.621C29.4853 25.276 29.1942 26.5982 29.5363 27.663C29.8588 28.4276 30.7435 28.6743 31.4673 28.9017C35.637 29.9897 40.0556 29.8815 44.1456 31.3133C45.839 31.897 47.4955 33.0318 48.0751 34.8006C48.8333 37.1713 48.5009 40.005 46.8103 41.9082C45.4393 43.4744 43.4425 44.3268 41.4509 44.7898C38.8015 45.3792 36.0519 45.3942 33.3613 45.1325C30.8313 44.8447 28.1985 44.1816 26.2454 42.4618C24.5752 41.015 23.7595 38.7607 23.8404 36.5849C23.8598 36.2175 24.2265 35.9612 24.5793 35.9914C25.5902 35.9832 26.6011 35.9805 27.612 35.9928C28.0158 35.964 28.3152 36.3121 28.3359 36.6918C28.5224 37.9098 28.9812 39.1882 30.0458 39.9104C32.1004 41.2328 34.6784 41.1423 37.031 41.1793C38.98 41.093 41.1679 41.0669 42.7585 39.7817C43.5976 39.0487 43.8463 37.8222 43.6195 36.7671C43.3738 35.8763 42.4398 35.4613 41.6377 35.1898C37.5215 33.8908 33.0535 34.3621 28.9771 32.8931C27.3222 32.3096 25.7219 31.2064 25.0861 29.5102C24.199 27.1095 24.6055 24.1401 26.4733 22.3011C28.2945 20.4719 30.9234 19.7676 33.423 19.5155Z" fill="#0A3D38"/>
</g>
<defs>
<clipPath id="clip0_113_71">
<rect width="58.2472" height="64" fill="white"/>
</clipPath>
</defs>
</svg>
