<svg width="57" height="64" viewBox="0 0 57 64" fill="none" xmlns="http://www.w3.org/2000/svg">
<g clip-path="url(#clip0_113_75)">
<path d="M56.1493 32.0057C56.1493 28.285 51.4912 24.7588 44.3495 22.5721C45.9976 15.2909 45.2651 9.49795 42.0376 7.64329C41.2937 7.20824 40.4239 7.00217 39.4739 7.00217V9.55519C40.0004 9.55519 40.4239 9.65823 40.7787 9.85285C42.3352 10.7458 43.0104 14.146 42.484 18.5194C42.3581 19.5955 42.1521 20.7289 41.9003 21.8852C39.657 21.3357 37.2078 20.9121 34.6327 20.6373C33.0876 18.5194 31.4853 16.596 29.8715 14.9131C33.6026 11.4442 37.1048 9.54374 39.4854 9.54374V6.99072C36.338 6.99072 32.2178 9.23463 28.0518 13.1271C23.8858 9.25753 19.7656 7.03652 16.6182 7.03652V9.58953C18.9873 9.58953 22.5009 11.4785 26.232 14.9245C24.6297 16.6075 23.0274 18.5194 21.5052 20.6373C18.9186 20.9121 16.4694 21.3357 14.2262 21.8967C13.9629 20.7518 13.7684 19.6413 13.631 18.5766C13.0931 14.2033 13.7569 10.8031 15.302 9.89864C15.6454 9.69257 16.0917 9.60098 16.6182 9.60098V7.04797C15.6568 7.04797 14.787 7.25404 14.0316 7.68908C10.8156 9.54374 10.0945 15.3252 11.7541 22.5836C4.63524 24.7817 0 28.2964 0 32.0057C0 35.7265 4.65813 39.2526 11.7998 41.4393C10.1517 48.7205 10.8842 54.5135 14.1117 56.3682C14.8557 56.8032 15.7255 57.0093 16.6869 57.0093C19.8342 57.0093 23.9545 54.7654 28.1204 50.8729C32.2864 54.7425 36.4067 56.9635 39.554 56.9635C40.5154 56.9635 41.3852 56.7574 42.1406 56.3224C45.3567 54.4677 46.0777 48.6862 44.4182 41.4278C51.5141 39.2412 56.1493 35.715 56.1493 32.0057ZM41.2479 24.3696C40.8244 25.8464 40.298 27.3691 39.7028 28.8917C39.2336 27.9758 38.7414 27.06 38.2035 26.1441C37.6771 25.2282 37.1162 24.3352 36.5554 23.4651C38.1806 23.7055 39.7486 24.0032 41.2479 24.3696ZM36.0061 36.5622C35.1134 38.1078 34.1978 39.5732 33.2478 40.9356C31.5425 41.0844 29.8143 41.1645 28.0747 41.1645C26.3465 41.1645 24.6183 41.0844 22.9244 40.947C21.9745 39.5846 21.0474 38.1307 20.1547 36.5966C19.2849 35.0968 18.4952 33.5742 17.7741 32.0401C18.4837 30.506 19.2849 28.9719 20.1433 27.4721C21.036 25.9266 21.9516 24.4612 22.9015 23.0988C24.6068 22.9499 26.335 22.8698 28.0747 22.8698C29.8029 22.8698 31.5311 22.9499 33.2249 23.0873C34.1749 24.4497 35.1019 25.9037 35.9946 27.4378C36.8645 28.9375 37.6542 30.4602 38.3752 31.9943C37.6542 33.5284 36.8645 35.0625 36.0061 36.5622ZM39.7028 35.0739C40.3209 36.608 40.8473 38.1421 41.2822 39.6304C39.7829 39.9968 38.2035 40.3059 36.5669 40.5463C37.1277 39.6648 37.6885 38.7603 38.215 37.833C38.7414 36.9171 39.2336 35.9898 39.7028 35.0739ZM28.0976 47.2895C27.0332 46.1904 25.9688 44.9654 24.9158 43.626C25.9459 43.6718 26.9988 43.7061 28.0632 43.7061C29.1391 43.7061 30.2034 43.6832 31.2449 43.626C30.2149 44.9654 29.1505 46.1904 28.0976 47.2895ZM19.5825 40.5463C17.9573 40.3059 16.3893 40.0082 14.89 39.6419C15.3135 38.165 15.8399 36.6424 16.4351 35.1197C16.9043 36.0356 17.3965 36.9515 17.9344 37.8674C18.4723 38.7832 19.0216 39.6762 19.5825 40.5463ZM28.0403 16.722C29.1047 17.821 30.1691 19.046 31.2221 20.3855C30.192 20.3397 29.1391 20.3053 28.0747 20.3053C26.9988 20.3053 25.9345 20.3282 24.893 20.3855C25.923 19.046 26.9874 17.821 28.0403 16.722ZM19.571 23.4651C19.0102 24.3467 18.4494 25.2511 17.9229 26.1784C17.3965 27.0943 16.9043 28.0102 16.4351 28.9261C15.817 27.392 15.2906 25.8579 14.8557 24.3696C16.355 24.0147 17.9344 23.7055 19.571 23.4651ZM9.21325 37.7987C5.16171 36.0699 2.5408 33.8031 2.5408 32.0057C2.5408 30.2083 5.16171 27.93 9.21325 26.2128C10.1975 25.7892 11.2734 25.4114 12.3835 25.0565C13.0359 27.3004 13.8943 29.6359 14.9587 32.0286C13.9057 34.4099 13.0588 36.734 12.4179 38.9664C11.2848 38.6115 10.209 38.2223 9.21325 37.7987ZM15.3707 54.1586C13.8142 53.2656 13.1389 49.8654 13.6654 45.4921C13.7913 44.4159 13.9973 43.2825 14.2491 42.1262C16.4923 42.6757 18.9415 43.0993 21.5167 43.3741C23.0617 45.4921 24.664 47.4154 26.2778 49.0983C22.5467 52.5672 19.0445 54.4677 16.664 54.4677C16.1489 54.4563 15.714 54.3532 15.3707 54.1586ZM42.5183 45.4348C43.0562 49.8082 42.3924 53.2084 40.8473 54.1128C40.504 54.3189 40.0576 54.4105 39.5311 54.4105C37.162 54.4105 33.6484 52.5215 29.9173 49.0755C31.5196 47.3925 33.1219 45.4806 34.6441 43.3626C37.2307 43.0879 39.6799 42.6643 41.9232 42.1033C42.1864 43.2596 42.3924 44.3701 42.5183 45.4348ZM46.9246 37.7987C45.9404 38.2223 44.8645 38.6001 43.7544 38.955C43.102 36.7111 42.2436 34.3756 41.1792 31.9828C42.2322 29.6015 43.0791 27.2775 43.72 25.045C44.8531 25.3999 45.9289 25.7892 46.9361 26.2128C50.9876 27.9415 53.6085 30.2083 53.6085 32.0057C53.5971 33.8031 50.9762 36.0814 46.9246 37.7987Z" fill="#0A3D38"/>
<path d="M28.0633 37.2376C30.9519 37.2376 33.2936 34.8952 33.2936 32.0057C33.2936 29.1161 30.9519 26.7737 28.0633 26.7737C25.1746 26.7737 22.8329 29.1161 22.8329 32.0057C22.8329 34.8952 25.1746 37.2376 28.0633 37.2376Z" fill="#0A3D38"/>
</g>
<defs>
<clipPath id="clip0_113_75">
<rect width="56.1493" height="64" fill="white"/>
</clipPath>
</defs>
</svg>
