<svg width="64" height="64" viewBox="0 0 64 64" fill="none" xmlns="http://www.w3.org/2000/svg">
<g clip-path="url(#clip0_169_8)">
<mask id="mask0_169_8" style="mask-type:luminance" maskUnits="userSpaceOnUse" x="0" y="0" width="64" height="64">
<path d="M0 0H64V64H0V0Z" fill="white"/>
</mask>
<g mask="url(#mask0_169_8)">
<path d="M62.4773 2.33938e-06H1.52C1.11663 0.000708775 0.730017 0.161444 0.445038 0.446923C0.160059 0.732402 1.72491e-06 1.11929 2.34351e-06 1.52267V62.48C-0.000348945 62.6801 0.0387962 62.8782 0.115193 63.0631C0.19159 63.248 0.303735 63.416 0.445198 63.5575C0.58666 63.6989 0.754657 63.8111 0.939554 63.8875C1.12445 63.9639 1.32261 64.003 1.52267 64.0027H62.48C62.68 64.0027 62.878 63.9633 63.0627 63.8868C63.2474 63.8102 63.4153 63.6981 63.5567 63.5567C63.6981 63.4153 63.8102 63.2474 63.8868 63.0627C63.9633 62.878 64.0027 62.68 64.0027 62.48V1.52C64.0023 1.32004 63.9626 1.12211 63.8857 0.937506C63.8089 0.752901 63.6964 0.58524 63.5548 0.444095C63.4132 0.30295 63.2451 0.191085 63.0602 0.114887C62.8754 0.0386898 62.6773 -0.000348159 62.4773 2.33938e-06ZM38.096 34.2027H30.4773V57.904H24.3813V34.2027H16.7627V28.952H38.096V34.2027ZM39.8027 56.5493V50.216C39.8027 50.216 43.264 52.824 47.416 52.824C51.568 52.824 51.408 50.1093 51.408 49.736C51.408 45.7973 39.6427 45.7973 39.6427 37.0667C39.6427 25.1947 56.7867 29.88 56.7867 29.88L56.5733 35.5227C56.5733 35.5227 53.6987 33.6053 50.4507 33.6053C47.2027 33.6053 46.032 35.152 46.032 36.8C46.032 41.0587 57.904 40.6347 57.904 49.2053C57.904 62.4053 39.8027 56.552 39.8027 56.552V56.5493Z" fill="#0A3D38"/>
</g>
</g>
<defs>
<clipPath id="clip0_169_8">
<rect width="64" height="64" fill="white"/>
</clipPath>
</defs>
</svg>
