<svg width="128" height="128" viewBox="0 0 128 128" fill="none" xmlns="http://www.w3.org/2000/svg">
<g clip-path="url(#clip0_133_280)">
<mask id="mask0_133_280" style="mask-type:luminance" maskUnits="userSpaceOnUse" x="0" y="0" width="128" height="128">
<path d="M0 0H128V128H0V0Z" fill="white"/>
</mask>
<g mask="url(#mask0_133_280)">
<path d="M124.955 4.67876e-06H3.04C2.23326 0.00141755 1.46003 0.322888 0.890076 0.893846C0.320118 1.4648 3.44983e-06 2.23859 4.68702e-06 3.04534V124.96C-0.000697889 125.36 0.0775924 125.756 0.230386 126.126C0.383179 126.496 0.60747 126.832 0.890395 127.115C1.17332 127.398 1.50931 127.622 1.87911 127.775C2.2489 127.928 2.64522 128.006 3.04534 128.005H124.96C125.36 128.005 125.756 127.927 126.125 127.774C126.495 127.62 126.831 127.396 127.113 127.113C127.396 126.831 127.62 126.495 127.774 126.125C127.927 125.756 128.005 125.36 128.005 124.96V3.04C128.005 2.64009 127.925 2.24422 127.771 1.87501C127.618 1.5058 127.393 1.17048 127.11 0.88819C126.826 0.605899 126.49 0.38217 126.12 0.229775C125.751 0.0773796 125.355 -0.000696318 124.955 4.67876e-06ZM76.192 68.4053H60.9547V115.808H48.7627V68.4053H33.5253V57.904H76.192V68.4053ZM79.6053 113.099V100.432C79.6053 100.432 86.528 105.648 94.832 105.648C103.136 105.648 102.816 100.219 102.816 99.472C102.816 91.5947 79.2853 91.5947 79.2853 74.1333C79.2853 50.3893 113.573 59.76 113.573 59.76L113.147 71.0453C113.147 71.0453 107.397 67.2107 100.901 67.2107C94.4053 67.2107 92.064 70.304 92.064 73.6C92.064 82.1173 115.808 81.2693 115.808 98.4107C115.808 124.811 79.6053 113.104 79.6053 113.104V113.099Z" fill="#202020"/>
</g>
</g>
<defs>
<clipPath id="clip0_133_280">
<rect width="128" height="128" fill="white"/>
</clipPath>
</defs>
</svg>
